<svg xmlns="http://www.w3.org/2000/svg" viewBox="0 0 37.87 29.85"><defs><style>.cls-1{fill:#ff6404;}</style></defs><g id="Layer_2" data-name="Layer 2"><g id="_4" data-name="4"><path class="cls-1" d="M37.55,16a2.67,2.67,0,0,1-1,1,2.92,2.92,0,0,1-1.46.39h-26L17.58,26a1.3,1.3,0,0,1,0,1.81l-1.72,1.81-.18.09a2,2,0,0,1-.8.18,1.44,1.44,0,0,1-1-.39L.4,16a1.63,1.63,0,0,1-.21-1.84L.27,14l.14-.13L13.79.54A1.41,1.41,0,0,1,14.67,0,1.55,1.55,0,0,1,16,.46L17.56,2a1.33,1.33,0,0,1,0,1.87L9.33,12.18h25.9a2.67,2.67,0,0,1,2.27,1.34A2.48,2.48,0,0,1,37.55,16Z"/></g></g></svg>