<?xml version="1.0" encoding="utf-8"?>
<!-- Generator: Adobe Illustrator 25.2.3, SVG Export Plug-In . SVG Version: 6.00 Build 0)  -->
<svg version="1.1" id="Layer_1" xmlns="http://www.w3.org/2000/svg" xmlns:xlink="http://www.w3.org/1999/xlink" x="0px" y="0px"
	 viewBox="0 0 32.8 29.8" style="enable-background:new 0 0 32.8 29.8;" xml:space="preserve">
<style type="text/css">
	.st0{fill:#FF6404;}
</style>
<g>
	<g>
		<path class="st0" d="M32.8,14.4c0,0.4-0.1,0.8-0.4,1.2c-0.6,0.7-1.8,0.8-2.5,0.2l-2-1.8v12.9c0,1.6-1.3,3-3,3h-5.2v-8.8
			c0-1.2-1-2.2-2.2-2.2h-2.1c-1.2,0-2.2,1-2.2,2.2v8.8h-5c-1.6,0-3-1.3-3-3v-13l-2.2,1.9c-0.7,0.6-1.9,0.6-2.5-0.2
			C0.1,15.2,0,14.8,0,14.4c0-0.5,0.2-1,0.6-1.3l4.5-3.9l10-8.7C15.6,0.1,16,0,16.5,0c0,0,0,0,0,0c0.4,0,0.8,0.2,1.1,0.4l10.2,8.8
			l4.4,3.8C32.6,13.4,32.8,13.9,32.8,14.4z"/>
	</g>
</g>
</svg>
