<?xml version="1.0" encoding="utf-8"?>
<!-- Generator: Adobe Illustrator 26.0.3, SVG Export Plug-In . SVG Version: 6.00 Build 0)  -->
<svg version="1.1" id="Layer_1" xmlns="http://www.w3.org/2000/svg" xmlns:xlink="http://www.w3.org/1999/xlink" x="0px" y="0px"
	 viewBox="0 0 277.7 103.5" style="enable-background:new 0 0 277.7 103.5;" xml:space="preserve">
<style type="text/css">
	.st0{fill:#F26722;}
	.st1{opacity:0.5;}
	.st2{fill:#FFCCB6;}
</style>
<path class="st0" d="M283.1,192.6H131c-3.5,0-6.4-2.9-6.4-6.4v-31.7c0-3.5,2.9-6.4,6.4-6.4h152.1c3.5,0,6.4,2.9,6.4,6.4v31.7
	C289.5,189.7,286.6,192.6,283.1,192.6z"/>
<g class="st1">
	<path class="st0" d="M-56.1,31.8h-58.7c-1.8,0-3.3-1.5-3.3-3.3v-3.8c0-1.8,1.5-3.3,3.3-3.3h58.7c1.8,0,3.3,1.5,3.3,3.3v3.8
		C-52.8,30.3-54.2,31.8-56.1,31.8z"/>
	<path class="st0" d="M-56.1,56.6h-58.7c-1.8,0-3.3-1.5-3.3-3.3v-3.8c0-1.8,1.5-3.3,3.3-3.3h58.7c1.8,0,3.3,1.5,3.3,3.3v3.8
		C-52.8,55.1-54.2,56.6-56.1,56.6z"/>
	<path class="st0" d="M-56.1,81.4h-58.7c-1.8,0-3.3-1.4-3.3-3.3v-3.8c0-1.8,1.5-3.3,3.3-3.3h58.7c1.8,0,3.3,1.5,3.3,3.3v3.8
		C-52.8,80-54.2,81.4-56.1,81.4z"/>
</g>
<g>
	<path class="st2" d="M155.8,181.4v-17.8h-7v-4h18.7v4h-7v17.8H155.8z"/>
	<path class="st2" d="M175.4,181.8c-1.8,0-3.4-0.3-4.6-0.9c-1.2-0.6-2.2-1.6-2.8-2.9c-0.6-1.3-1-2.9-1-4.9c0-2,0.3-3.6,1-4.9
		c0.6-1.3,1.6-2.2,2.8-2.9c1.2-0.6,2.8-0.9,4.5-0.9c1.7,0,3.1,0.3,4.3,0.9s2,1.5,2.6,2.8c0.6,1.3,0.9,2.9,0.9,4.9v1.1h-11.6
		c0,1,0.2,1.8,0.5,2.5c0.3,0.7,0.7,1.2,1.2,1.5c0.6,0.3,1.3,0.5,2.2,0.5c0.5,0,1-0.1,1.4-0.2c0.4-0.1,0.8-0.3,1.1-0.6
		c0.3-0.3,0.5-0.6,0.7-1s0.3-0.8,0.3-1.3h4.3c0,1.1-0.2,2-0.6,2.8s-0.9,1.4-1.6,1.9c-0.7,0.5-1.5,0.9-2.4,1.2
		S176.6,181.8,175.4,181.8z M171.6,171.3h7c0-0.6-0.1-1.2-0.2-1.6s-0.4-0.8-0.6-1.1c-0.3-0.3-0.6-0.5-1-0.6
		c-0.4-0.1-0.8-0.2-1.3-0.2c-0.8,0-1.5,0.1-2,0.4c-0.5,0.3-1,0.7-1.2,1.2C171.9,169.8,171.7,170.5,171.6,171.3z"/>
	<path class="st2" d="M193.1,181.8c-1.2,0-2.2-0.1-3.1-0.4s-1.7-0.6-2.4-1.1s-1.2-1-1.5-1.6c-0.3-0.6-0.5-1.4-0.5-2.2
		c0-0.1,0-0.2,0-0.3c0-0.1,0-0.1,0-0.2h4.2c0,0,0,0.1,0,0.1c0,0,0,0.1,0,0.1c0,0.5,0.2,1,0.5,1.3c0.3,0.3,0.7,0.6,1.3,0.7
		s1.1,0.2,1.6,0.2c0.5,0,1,0,1.5-0.1c0.5-0.1,0.9-0.3,1.2-0.5c0.3-0.3,0.5-0.6,0.5-1c0-0.5-0.2-0.9-0.6-1.2c-0.4-0.3-1-0.5-1.6-0.7
		s-1.4-0.4-2.2-0.6c-0.7-0.2-1.4-0.4-2.2-0.6s-1.4-0.5-1.9-0.9c-0.6-0.4-1.1-0.8-1.4-1.4c-0.4-0.6-0.5-1.3-0.5-2.2
		c0-0.9,0.2-1.6,0.6-2.3c0.4-0.6,0.9-1.2,1.6-1.6c0.7-0.4,1.4-0.7,2.3-0.9s1.9-0.3,2.9-0.3c1,0,1.9,0.1,2.7,0.3s1.6,0.5,2.2,0.9
		c0.6,0.4,1.1,0.9,1.5,1.5c0.4,0.6,0.5,1.2,0.5,1.9c0,0.1,0,0.3,0,0.4c0,0.1,0,0.2,0,0.3H196v-0.3c0-0.4-0.1-0.7-0.3-1
		c-0.2-0.3-0.6-0.5-1-0.6s-1-0.2-1.6-0.2c-0.4,0-0.8,0-1.2,0.1c-0.3,0.1-0.6,0.2-0.9,0.3c-0.3,0.1-0.4,0.3-0.6,0.5
		c-0.1,0.2-0.2,0.4-0.2,0.6c0,0.4,0.2,0.6,0.5,0.9c0.3,0.2,0.7,0.4,1.2,0.6c0.5,0.1,1.1,0.3,1.7,0.5c0.8,0.2,1.6,0.4,2.4,0.6
		c0.8,0.2,1.6,0.5,2.3,0.8c0.7,0.3,1.3,0.8,1.7,1.4c0.4,0.6,0.7,1.5,0.7,2.5c0,1-0.2,1.9-0.6,2.6c-0.4,0.7-0.9,1.3-1.6,1.7
		c-0.7,0.4-1.5,0.7-2.4,0.9C195.2,181.7,194.2,181.8,193.1,181.8z"/>
	<path class="st2" d="M208.9,181.8c-1.1,0-1.9-0.2-2.6-0.6c-0.7-0.4-1.1-0.9-1.4-1.5c-0.3-0.6-0.4-1.4-0.4-2.1v-9.4h-2.1v-3.4h2.2
		l0.8-4.8h3.4v4.8h3v3.4h-3v8.7c0,0.5,0.1,0.9,0.3,1.2c0.2,0.3,0.6,0.4,1.1,0.4h1.6v2.9c-0.3,0.1-0.5,0.2-0.9,0.2s-0.7,0.1-1.1,0.2
		S209.3,181.8,208.9,181.8z"/>
	<path class="st2" d="M215.2,181.4v-21.7h4.3l8.7,11.7c0.1,0.1,0.3,0.4,0.5,0.6c0.2,0.3,0.4,0.5,0.5,0.8c0.2,0.3,0.3,0.5,0.3,0.6
		h0.2c0-0.4,0-0.7,0-1.1c0-0.3,0-0.7,0-0.9v-11.7h4.5v21.7h-4.3l-8.9-12c-0.2-0.3-0.4-0.6-0.7-1c-0.2-0.4-0.4-0.6-0.5-0.8h-0.2
		c0,0.3,0,0.6,0,0.9c0,0.3,0,0.6,0,0.9v12H215.2z"/>
	<path class="st2" d="M246.2,181.8c-1.8,0-3.4-0.3-4.6-0.9c-1.2-0.6-2.2-1.6-2.8-2.9c-0.6-1.3-1-2.9-1-4.9c0-2,0.3-3.6,1-4.9
		c0.6-1.3,1.6-2.2,2.8-2.9c1.2-0.6,2.8-0.9,4.5-0.9c1.7,0,3.1,0.3,4.3,0.9s2,1.5,2.6,2.8c0.6,1.3,0.9,2.9,0.9,4.9v1.1h-11.6
		c0,1,0.2,1.8,0.5,2.5c0.3,0.7,0.7,1.2,1.2,1.5c0.6,0.3,1.3,0.5,2.2,0.5c0.5,0,1-0.1,1.4-0.2c0.4-0.1,0.8-0.3,1.1-0.6
		c0.3-0.3,0.5-0.6,0.7-1s0.3-0.8,0.3-1.3h4.3c0,1.1-0.2,2-0.6,2.8s-0.9,1.4-1.6,1.9c-0.7,0.5-1.5,0.9-2.4,1.2
		S247.4,181.8,246.2,181.8z M242.4,171.3h7c0-0.6-0.1-1.2-0.2-1.6s-0.4-0.8-0.6-1.1c-0.3-0.3-0.6-0.5-1-0.6
		c-0.4-0.1-0.8-0.2-1.3-0.2c-0.8,0-1.5,0.1-2,0.4c-0.5,0.3-1,0.7-1.2,1.2C242.7,169.8,242.5,170.5,242.4,171.3z"/>
	<path class="st2" d="M262.1,181.8c-1.1,0-1.9-0.2-2.6-0.6c-0.7-0.4-1.1-0.9-1.4-1.5c-0.3-0.6-0.4-1.4-0.4-2.1v-9.4h-2.1v-3.4h2.2
		l0.8-4.8h3.4v4.8h3v3.4h-3v8.7c0,0.5,0.1,0.9,0.3,1.2c0.2,0.3,0.6,0.4,1.1,0.4h1.6v2.9c-0.3,0.1-0.5,0.2-0.9,0.2s-0.7,0.1-1.1,0.2
		S262.5,181.8,262.1,181.8z"/>
</g>
<g>
	<path class="st0" d="M16.6,78.5V36.1H0v-9.5h44.7v9.5H28v42.4H16.6z"/>
	<path class="st0" d="M63.5,79.4c-4.4,0-8.1-0.7-11-2.2c-3-1.5-5.2-3.8-6.7-6.8c-1.5-3.1-2.3-7-2.3-11.7c0-4.8,0.8-8.7,2.3-11.8
		c1.5-3.1,3.7-5.3,6.7-6.8c3-1.5,6.6-2.2,10.9-2.2c4,0,7.4,0.7,10.2,2.2c2.8,1.4,4.9,3.7,6.3,6.7c1.4,3,2.1,6.9,2.1,11.6v2.7H54.1
		c0.1,2.3,0.5,4.3,1.1,5.9c0.6,1.6,1.6,2.8,3,3.6c1.3,0.8,3.1,1.2,5.3,1.2c1.2,0,2.3-0.2,3.3-0.5c1-0.3,1.8-0.8,2.5-1.4
		c0.7-0.6,1.3-1.4,1.7-2.3c0.4-0.9,0.6-1.9,0.6-3.1h10.3c0,2.5-0.5,4.7-1.4,6.6s-2.2,3.4-3.8,4.7c-1.6,1.2-3.5,2.2-5.8,2.8
		S66.2,79.4,63.5,79.4z M54.2,54.3H71c0-1.5-0.2-2.8-0.6-3.9c-0.4-1.1-0.9-2-1.5-2.7c-0.7-0.7-1.5-1.2-2.4-1.5
		c-0.9-0.3-2-0.5-3.1-0.5c-1.9,0-3.5,0.3-4.8,0.9c-1.3,0.6-2.3,1.6-3,2.9C54.9,50.7,54.5,52.3,54.2,54.3z"/>
	<path class="st0" d="M105.7,79.4c-2.8,0-5.3-0.3-7.5-0.9S94.1,77,92.5,76c-1.6-1.1-2.8-2.4-3.6-3.9c-0.8-1.5-1.2-3.2-1.2-5.1
		c0-0.2,0-0.4,0-0.6c0-0.2,0-0.4,0.1-0.5h10.1c0,0.1,0,0.2,0,0.3c0,0.1,0,0.2,0,0.3c0.1,1.3,0.5,2.3,1.2,3.1c0.8,0.8,1.8,1.4,3,1.7
		c1.2,0.4,2.5,0.5,3.9,0.5c1.2,0,2.4-0.1,3.5-0.3c1.1-0.2,2.1-0.6,2.9-1.2c0.8-0.6,1.2-1.4,1.2-2.3c0-1.2-0.5-2.1-1.5-2.8
		c-1-0.7-2.3-1.2-3.9-1.6c-1.6-0.4-3.3-0.9-5.2-1.4c-1.7-0.4-3.4-0.9-5.1-1.4c-1.7-0.5-3.3-1.2-4.7-2.1c-1.4-0.9-2.5-2-3.4-3.4
		c-0.9-1.4-1.3-3.1-1.3-5.3c0-2.1,0.5-3.9,1.4-5.4c0.9-1.5,2.2-2.8,3.7-3.8c1.6-1,3.5-1.8,5.6-2.2c2.1-0.5,4.5-0.7,6.9-0.7
		c2.3,0,4.5,0.2,6.5,0.7s3.8,1.2,5.3,2.1c1.5,0.9,2.7,2.1,3.6,3.5c0.9,1.4,1.3,2.9,1.3,4.7c0,0.4,0,0.7,0,1c0,0.3,0,0.5-0.1,0.6
		h-10.1v-0.6c0-0.9-0.3-1.7-0.8-2.3c-0.6-0.6-1.4-1.1-2.4-1.5c-1-0.4-2.3-0.5-3.7-0.5c-1,0-1.9,0.1-2.8,0.2
		c-0.8,0.2-1.5,0.4-2.2,0.7c-0.6,0.3-1.1,0.7-1.4,1.1c-0.3,0.4-0.5,0.9-0.5,1.6c0,0.9,0.4,1.6,1.1,2.1c0.7,0.5,1.7,1,2.9,1.3
		c1.2,0.4,2.5,0.7,4,1.1c1.8,0.5,3.7,1,5.7,1.5c2,0.5,3.8,1.1,5.6,1.9c1.7,0.8,3.1,2,4.2,3.4c1.1,1.5,1.6,3.5,1.6,6
		c0,2.4-0.5,4.5-1.4,6.1c-0.9,1.7-2.2,3-3.9,4c-1.7,1-3.6,1.7-5.8,2.2C110.6,79.2,108.2,79.4,105.7,79.4z"/>
	<path class="st0" d="M143.5,79.4c-2.5,0-4.6-0.5-6.1-1.4c-1.6-0.9-2.7-2.1-3.4-3.7c-0.7-1.5-1.1-3.2-1.1-5.1V46.8H128v-8.1h5.3
		l2-11.3h8.2v11.3h7.3v8.1h-7.3v20.7c0,1.2,0.3,2.1,0.8,2.8c0.6,0.6,1.5,0.9,2.7,0.9h3.7v7c-0.6,0.2-1.3,0.4-2.1,0.6
		c-0.8,0.2-1.7,0.3-2.6,0.5C145.1,79.3,144.2,79.4,143.5,79.4z"/>
	<path class="st0" d="M158.4,78.5V26.6h10.4l20.9,28c0.3,0.4,0.7,0.8,1.1,1.5c0.5,0.6,0.9,1.2,1.3,1.9c0.4,0.6,0.7,1.1,0.8,1.4h0.4
		c0-0.9,0-1.7,0-2.5c0-0.8,0-1.6,0-2.2v-28h10.7v51.9h-10.4l-21.3-28.7c-0.5-0.7-1-1.5-1.6-2.3c-0.6-0.9-1-1.5-1.2-2H169
		c0,0.8,0,1.5,0,2.2c0,0.7,0,1.4,0,2.1v28.7H158.4z"/>
	<path class="st0" d="M232.6,79.4c-4.4,0-8.1-0.7-11-2.2c-3-1.5-5.2-3.8-6.7-6.8c-1.5-3.1-2.3-7-2.3-11.7c0-4.8,0.8-8.7,2.3-11.8
		c1.5-3.1,3.7-5.3,6.7-6.8c3-1.5,6.6-2.2,10.9-2.2c4,0,7.4,0.7,10.2,2.2c2.8,1.4,4.9,3.7,6.3,6.7c1.4,3,2.1,6.9,2.1,11.6v2.7h-27.8
		c0.1,2.3,0.5,4.3,1.1,5.9c0.6,1.6,1.6,2.8,3,3.6c1.3,0.8,3.1,1.2,5.3,1.2c1.2,0,2.3-0.2,3.3-0.5c1-0.3,1.8-0.8,2.5-1.4
		c0.7-0.6,1.3-1.4,1.7-2.3c0.4-0.9,0.6-1.9,0.6-3.1h10.3c0,2.5-0.5,4.7-1.4,6.6c-0.9,1.9-2.2,3.4-3.8,4.7c-1.6,1.2-3.5,2.2-5.8,2.8
		S235.3,79.4,232.6,79.4z M223.3,54.3h16.8c0-1.5-0.2-2.8-0.6-3.9s-0.9-2-1.5-2.7c-0.7-0.7-1.5-1.2-2.4-1.5c-0.9-0.3-2-0.5-3.1-0.5
		c-1.9,0-3.5,0.3-4.8,0.9c-1.3,0.6-2.3,1.6-3,2.9C224.1,50.7,223.6,52.3,223.3,54.3z"/>
	<path class="st0" d="M270.5,79.4c-2.5,0-4.6-0.5-6.1-1.4c-1.6-0.9-2.7-2.1-3.4-3.7c-0.7-1.5-1.1-3.2-1.1-5.1V46.8H255v-8.1h5.3
		l2-11.3h8.2v11.3h7.3v8.1h-7.3v20.7c0,1.2,0.3,2.1,0.8,2.8c0.6,0.6,1.5,0.9,2.7,0.9h3.7v7c-0.6,0.2-1.3,0.4-2.1,0.6
		c-0.8,0.2-1.7,0.3-2.6,0.5C272.1,79.3,271.3,79.4,270.5,79.4z"/>
</g>
<path class="st0" d="M283.3,255.6H131.1c-3.5,0-6.4-2.9-6.4-6.4v-31.7c0-3.5,2.9-6.4,6.4-6.4h152.1c3.5,0,6.4,2.9,6.4,6.4v31.7
	C289.6,252.8,286.8,255.6,283.3,255.6z"/>
<g>
	<path class="st2" d="M152.3,244.1c-1.2,0-2.3-0.1-3.3-0.3s-2-0.6-2.8-1.1c-0.8-0.5-1.4-1.2-1.9-1.9s-0.7-1.7-0.7-2.9
		c0-0.1,0-0.2,0-0.3c0-0.1,0-0.2,0-0.2h4.3c0,0.1,0,0.1,0,0.2c0,0.1,0,0.2,0,0.3c0,0.6,0.2,1.1,0.5,1.6c0.3,0.4,0.8,0.7,1.5,1
		c0.7,0.2,1.4,0.3,2.3,0.3c0.6,0,1.1,0,1.5-0.1c0.4-0.1,0.8-0.2,1.2-0.3c0.3-0.1,0.6-0.3,0.8-0.4c0.2-0.2,0.4-0.4,0.5-0.6
		c0.1-0.2,0.2-0.5,0.2-0.8c0-0.5-0.2-0.9-0.5-1.3c-0.3-0.3-0.8-0.6-1.4-0.8c-0.6-0.2-1.3-0.4-2-0.6c-0.7-0.2-1.5-0.4-2.3-0.6
		s-1.5-0.5-2.3-0.8c-0.7-0.3-1.4-0.7-2-1.1c-0.6-0.4-1-1-1.4-1.6c-0.3-0.7-0.5-1.5-0.5-2.4c0-1,0.2-1.8,0.6-2.6
		c0.4-0.7,1-1.3,1.8-1.8s1.6-0.8,2.6-1c1-0.2,2.1-0.3,3.2-0.3c1.1,0,2.1,0.1,3.1,0.3c1,0.2,1.8,0.6,2.6,1.1c0.7,0.5,1.3,1.1,1.7,1.8
		c0.4,0.7,0.6,1.6,0.6,2.6v0.3h-4.2v-0.2c0-0.5-0.2-1-0.5-1.3s-0.7-0.7-1.3-0.9c-0.6-0.2-1.2-0.3-2-0.3c-0.8,0-1.5,0.1-2.1,0.2
		c-0.6,0.2-1,0.4-1.3,0.7s-0.4,0.7-0.4,1.1c0,0.5,0.2,0.8,0.5,1.1s0.8,0.6,1.4,0.8c0.6,0.2,1.3,0.4,2,0.6c0.7,0.2,1.5,0.4,2.3,0.6
		c0.8,0.2,1.5,0.5,2.3,0.8c0.7,0.3,1.4,0.7,2,1.1c0.6,0.4,1,1,1.4,1.6s0.5,1.4,0.5,2.3c0,1.5-0.4,2.8-1.1,3.7c-0.7,0.9-1.7,1.6-3,2
		C155.4,243.9,153.9,244.1,152.3,244.1z"/>
	<path class="st2" d="M168.4,244.1c-1,0-1.8-0.2-2.3-0.5c-0.6-0.3-1-0.8-1.3-1.4s-0.4-1.2-0.4-2v-8.6h-1.9v-3.1h2l0.8-4.3h3.1v4.3
		h2.8v3.1h-2.8v7.9c0,0.5,0.1,0.8,0.3,1.1c0.2,0.2,0.6,0.4,1,0.4h1.4v2.7c-0.2,0.1-0.5,0.1-0.8,0.2c-0.3,0.1-0.6,0.1-1,0.2
		C169.1,244.1,168.7,244.1,168.4,244.1z"/>
	<path class="st2" d="M177.8,244.1c-0.5,0-1-0.1-1.6-0.2s-1.1-0.3-1.6-0.6s-0.9-0.7-1.2-1.3c-0.3-0.6-0.5-1.3-0.5-2.2
		c0-1.1,0.2-1.9,0.7-2.6s1.1-1.2,2-1.6c0.9-0.4,1.9-0.7,3.1-0.8c1.2-0.2,2.5-0.2,4-0.2v-1.1c0-0.4-0.1-0.8-0.2-1.2
		c-0.1-0.3-0.4-0.6-0.8-0.8c-0.4-0.2-0.9-0.3-1.5-0.3c-0.6,0-1.2,0.1-1.6,0.2c-0.4,0.2-0.7,0.4-0.8,0.6c-0.2,0.2-0.2,0.5-0.2,0.8
		v0.3h-3.9c0-0.1,0-0.2,0-0.3s0-0.2,0-0.3c0-0.9,0.3-1.7,0.8-2.3c0.5-0.6,1.3-1.1,2.3-1.5s2.1-0.5,3.5-0.5c1.4,0,2.6,0.2,3.6,0.6
		s1.7,0.9,2.2,1.6c0.5,0.7,0.8,1.6,0.8,2.7v6.9c0,0.3,0.1,0.6,0.3,0.8c0.2,0.2,0.4,0.2,0.7,0.2h1v2.6c-0.2,0.1-0.5,0.2-0.9,0.3
		c-0.4,0.1-0.9,0.2-1.5,0.2c-0.6,0-1.1-0.1-1.5-0.2c-0.4-0.2-0.8-0.4-1.1-0.7s-0.5-0.7-0.6-1.1h-0.2c-0.3,0.4-0.7,0.8-1.2,1.1
		s-1,0.6-1.7,0.7C179.4,244,178.7,244.1,177.8,244.1z M179.2,241c0.5,0,1-0.1,1.5-0.2c0.4-0.2,0.8-0.4,1.1-0.7s0.5-0.6,0.7-1
		c0.2-0.4,0.2-0.8,0.2-1.3v-0.8c-1.1,0-2,0.1-2.9,0.2c-0.9,0.1-1.5,0.4-2,0.7c-0.5,0.3-0.7,0.8-0.7,1.5c0,0.3,0.1,0.6,0.3,0.9
		c0.2,0.3,0.4,0.4,0.8,0.6C178.3,241,178.7,241,179.2,241z"/>
	<path class="st2" d="M193.1,249.2c-0.7,0-1.3-0.1-1.9-0.4c-0.6-0.3-1.1-0.7-1.4-1.2c-0.4-0.5-0.6-1.2-0.6-1.9c0-0.9,0.2-1.5,0.7-2
		s1-0.9,1.7-1.1c-0.4-0.3-0.8-0.6-1.1-1c-0.3-0.4-0.4-0.9-0.4-1.4c0-0.8,0.3-1.4,0.8-1.8c0.6-0.5,1.2-0.8,1.9-0.9
		c-0.7-0.4-1.3-1-1.7-1.7c-0.4-0.7-0.6-1.5-0.6-2.3c0-1.1,0.3-2,0.8-2.8c0.6-0.8,1.3-1.3,2.4-1.7c1-0.4,2.3-0.6,3.7-0.6
		c0.6,0,1.1,0,1.6,0.1c0.5,0.1,0.9,0.2,1.3,0.3c0.7-0.4,1.2-0.9,1.5-1.4c0.3-0.5,0.4-0.9,0.4-1.2h3.7c0,0.7-0.1,1.3-0.4,1.9
		c-0.3,0.5-0.6,1-1.1,1.3c-0.5,0.3-1.1,0.6-1.7,0.7c0.5,0.4,0.9,0.9,1.2,1.5c0.3,0.6,0.4,1.2,0.4,1.9c0,1.1-0.3,2-0.8,2.8
		c-0.5,0.8-1.3,1.3-2.2,1.8c-1,0.4-2.1,0.6-3.4,0.6h-2.3c-0.5,0-0.8,0.1-1,0.2c-0.2,0.2-0.3,0.4-0.3,0.7c0,0.3,0.1,0.5,0.3,0.7
		c0.2,0.2,0.5,0.3,1,0.3h6.4c1.3,0,2.3,0.4,3.1,1.2s1.1,1.8,1.1,3c0,0.9-0.2,1.7-0.7,2.5c-0.5,0.7-1.2,1.3-2,1.7
		c-0.9,0.4-1.8,0.6-2.9,0.6H193.1z M194.8,246.5h5.4c0.3,0,0.7-0.1,0.9-0.2c0.3-0.1,0.5-0.3,0.6-0.5c0.2-0.2,0.2-0.5,0.2-0.8
		c0-0.5-0.2-0.9-0.5-1.1c-0.3-0.3-0.7-0.4-1.2-0.4h-5.5c-0.5,0-0.8,0.1-1.1,0.4c-0.3,0.3-0.5,0.6-0.5,1.1c0,0.4,0.2,0.8,0.5,1.1
		C194,246.3,194.3,246.5,194.8,246.5z M197.4,235.8c0.9,0,1.7-0.2,2.2-0.7c0.5-0.4,0.7-1.1,0.7-1.9c0-0.8-0.2-1.4-0.7-1.9
		c-0.5-0.4-1.2-0.7-2.2-0.7c-0.9,0-1.6,0.2-2.1,0.7c-0.5,0.4-0.7,1.1-0.7,1.9c0,0.5,0.1,1,0.3,1.4c0.2,0.4,0.5,0.7,1,0.9
		C196.3,235.7,196.8,235.8,197.4,235.8z"/>
	<path class="st2" d="M215.2,244.1c-1.7,0-3.1-0.3-4.2-0.9c-1.1-0.6-2-1.4-2.6-2.6c-0.6-1.2-0.9-2.7-0.9-4.5c0-1.8,0.3-3.3,0.9-4.5
		c0.6-1.2,1.4-2,2.6-2.6c1.1-0.6,2.5-0.9,4.2-0.9c1.5,0,2.9,0.3,3.9,0.8c1.1,0.6,1.9,1.4,2.4,2.6c0.5,1.2,0.8,2.6,0.8,4.5v1h-10.6
		c0,0.9,0.2,1.6,0.4,2.3c0.2,0.6,0.6,1.1,1.1,1.4c0.5,0.3,1.2,0.5,2,0.5c0.5,0,0.9-0.1,1.3-0.2c0.4-0.1,0.7-0.3,1-0.5
		s0.5-0.5,0.6-0.9c0.2-0.3,0.2-0.7,0.2-1.2h3.9c0,1-0.2,1.8-0.5,2.5c-0.3,0.7-0.8,1.3-1.4,1.8c-0.6,0.5-1.4,0.8-2.2,1.1
		S216.2,244.1,215.2,244.1z M211.6,234.5h6.4c0-0.6-0.1-1.1-0.2-1.5c-0.1-0.4-0.3-0.8-0.6-1c-0.3-0.3-0.6-0.5-0.9-0.6
		c-0.4-0.1-0.8-0.2-1.2-0.2c-0.7,0-1.3,0.1-1.8,0.4c-0.5,0.2-0.9,0.6-1.1,1.1C211.9,233.1,211.7,233.7,211.6,234.5z"/>
	<path class="st2" d="M225.5,243.7v-19.9h4l8,10.7c0.1,0.1,0.3,0.3,0.4,0.6c0.2,0.2,0.3,0.5,0.5,0.7c0.2,0.2,0.3,0.4,0.3,0.6h0.1
		c0-0.3,0-0.7,0-1s0-0.6,0-0.9v-10.7h4.1v19.9h-4l-8.2-11c-0.2-0.3-0.4-0.6-0.6-0.9c-0.2-0.3-0.4-0.6-0.5-0.8h-0.1
		c0,0.3,0,0.6,0,0.9s0,0.5,0,0.8v11H225.5z"/>
	<path class="st2" d="M254,244.1c-1.7,0-3.1-0.3-4.2-0.9c-1.1-0.6-2-1.4-2.6-2.6c-0.6-1.2-0.9-2.7-0.9-4.5c0-1.8,0.3-3.3,0.9-4.5
		c0.6-1.2,1.4-2,2.6-2.6c1.1-0.6,2.5-0.9,4.2-0.9c1.5,0,2.9,0.3,3.9,0.8c1.1,0.6,1.9,1.4,2.4,2.6c0.5,1.2,0.8,2.6,0.8,4.5v1h-10.6
		c0,0.9,0.2,1.6,0.4,2.3c0.2,0.6,0.6,1.1,1.1,1.4c0.5,0.3,1.2,0.5,2,0.5c0.5,0,0.9-0.1,1.3-0.2c0.4-0.1,0.7-0.3,1-0.5
		s0.5-0.5,0.6-0.9c0.2-0.3,0.2-0.7,0.2-1.2h3.9c0,1-0.2,1.8-0.5,2.5c-0.3,0.7-0.8,1.3-1.4,1.8c-0.6,0.5-1.4,0.8-2.2,1.1
		S255,244.1,254,244.1z M250.4,234.5h6.4c0-0.6-0.1-1.1-0.2-1.5c-0.1-0.4-0.3-0.8-0.6-1c-0.3-0.3-0.6-0.5-0.9-0.6
		c-0.4-0.1-0.8-0.2-1.2-0.2c-0.7,0-1.3,0.1-1.8,0.4c-0.5,0.2-0.9,0.6-1.1,1.1C250.7,233.1,250.5,233.7,250.4,234.5z"/>
	<path class="st2" d="M268.5,244.1c-1,0-1.8-0.2-2.3-0.5c-0.6-0.3-1-0.8-1.3-1.4s-0.4-1.2-0.4-2v-8.6h-1.9v-3.1h2l0.8-4.3h3.1v4.3
		h2.8v3.1h-2.8v7.9c0,0.5,0.1,0.8,0.3,1.1c0.2,0.2,0.6,0.4,1,0.4h1.4v2.7c-0.2,0.1-0.5,0.1-0.8,0.2c-0.3,0.1-0.6,0.1-1,0.2
		C269.1,244.1,268.8,244.1,268.5,244.1z"/>
</g>
</svg>
