<?xml version="1.0" encoding="utf-8"?>
<!-- Generator: Adobe Illustrator 25.2.3, SVG Export Plug-In . SVG Version: 6.00 Build 0)  -->
<svg version="1.1" id="Layer_1" xmlns="http://www.w3.org/2000/svg" xmlns:xlink="http://www.w3.org/1999/xlink" x="0px" y="0px"
	 viewBox="0 0 285.4 103.5" style="enable-background:new 0 0 285.4 103.5;" xml:space="preserve">
<style type="text/css">
	.st0{fill:#F26722;}
</style>
<g>
	<path class="st0" d="M103.4,51.8c0,5.8-0.9,11.3-2.7,16.5H85.3V24.7L51.7,58.3L18.1,24.7v43.5H2.7C0.9,63,0,57.5,0,51.8
		C0,23.2,23.2,0,51.7,0C80.3,0,103.4,23.2,103.4,51.8z"/>
	<path class="st0" style="fill: #4d4d4d" d="M95.8,78.8c-9.1,14.8-25.4,24.7-44.1,24.7s-35-9.9-44.1-24.7h21.7V51.4L44,66.1l7.8,7.7l7.7-7.7l14.6-14.7
		v27.4C74.1,78.8,95.8,78.8,95.8,78.8z"/>
</g>
<path class="st0" d="M-3,63.2c0,0.1-0.1,0.2-0.1,0.4c-1.1,3.3-2.6,6.5-4.4,9.5c-0.1,0.2-0.3,0.5-0.4,0.7h-21.7V46.4l-14.6,14.7
	l-7.7,7.7l-7.8-7.7l-14.7-14.7v27.4h-21.7c-2-3.3-3.7-6.9-5-10.6h15.5V19.7L-52,53.3l33.6-33.6v43.5H-3z"/>
</svg>
