<?xml version="1.0" encoding="utf-8"?>
<!-- Generator: Adobe Illustrator 25.2.3, SVG Export Plug-In . SVG Version: 6.00 Build 0)  -->
<svg version="1.1" id="Layer_1" xmlns="http://www.w3.org/2000/svg" xmlns:xlink="http://www.w3.org/1999/xlink" x="0px" y="0px"
	 viewBox="0 0 285.4 103.5" style="enable-background:new 0 0 285.4 103.5;" xml:space="preserve">
<style type="text/css">
	.st0{fill:#F26722;}
</style>
<g>
	<path class="st0" d="M121.2,60h10.9c0.5,5.4,4,8.8,9.6,8.8c5.1,0,8.5-2.1,8.5-6.1c0-10.4-27.5-2.4-27.5-23.3c0-8.8,7.6-15,18.3-15
		c11.4,0,19.2,6.6,19.5,16.7h-10.8c-0.4-4.2-3.6-6.9-8.6-6.9c-4.5,0-7.3,2.1-7.3,5.2c0,11.1,27.9,2.1,27.9,23.1
		c0,9.9-8,16.1-19.9,16.1C129.7,78.6,121.7,71.2,121.2,60z"/>
	<path class="st0" d="M165.4,58.9c0-11.1,7.9-19.7,19.7-19.7c10,0,18,6.1,18.6,14.9h-10.6c-0.6-3.4-3.9-5.9-7.7-5.9
		c-5.7,0-9,4.5-9,10.7s3.4,10.6,9.2,10.6c3.9,0,7-2.3,7.7-5.8h10.8c-1.1,8.5-9,14.8-18.9,14.8C173.3,78.6,165.4,70,165.4,58.9z"/>
	<path class="st0" d="M241.8,53.4V78h-10.5v-5.3c-1.3,3.6-5.5,5.9-10.8,5.9c-7.4,0-12.5-4.9-12.5-11.4c0-7.5,5.6-12,13.9-12h6.4
		c1.9,0,2.9-1.2,2.9-2.8c0-3.2-2.5-5.4-6.8-5.4c-4.6,0-7,2.9-7.1,6.1H208c0.5-7.7,6.7-13.8,17.1-13.8
		C234.7,39.2,241.8,44.8,241.8,53.4z M231.3,62.3v-0.5h-7.7c-3.2,0-5.5,2-5.5,4.9c0,2.5,2.1,4.2,5.1,4.2
		C228.4,70.9,231.3,67.2,231.3,62.3z"/>
	<path class="st0" d="M249,39.8h10.6v5.3c2.1-3.7,6.4-5.9,11.6-5.9c8.6,0,14.2,6.2,14.2,15V78h-10.6V56.5c0-4.6-3-8-7.3-8
		c-4.6,0-7.9,3.6-7.9,8.5v21H249V39.8z"/>
	<path class="st0" d="M103.4,51.8c0,5.8-0.9,11.3-2.7,16.5H85.3V24.7L51.7,58.3L18.1,24.7v43.5H2.7C0.9,63,0,57.5,0,51.8
		C0,23.2,23.2,0,51.7,0C80.3,0,103.4,23.2,103.4,51.8z"/>
	<path class="st0" style="fill: #4d4d4d" d="M95.8,78.8c-9.1,14.8-25.4,24.7-44.1,24.7s-35-9.9-44.1-24.7h21.7V51.4L44,66.1l7.8,7.7l7.7-7.7l14.6-14.7
		v27.4C74.1,78.8,95.8,78.8,95.8,78.8z"/>
</g>
<path class="st0" d="M-3,63.2c0,0.1-0.1,0.2-0.1,0.4c-1.1,3.3-2.6,6.5-4.4,9.5c-0.1,0.2-0.3,0.5-0.4,0.7h-21.7V46.4l-14.6,14.7
	l-7.7,7.7l-7.8-7.7l-14.7-14.7v27.4h-21.7c-2-3.3-3.7-6.9-5-10.6h15.5V19.7L-52,53.3l33.6-33.6v43.5H-3z"/>
</svg>
