<?xml version="1.0" encoding="utf-8"?>
<!-- Generator: Adobe Illustrator 25.2.3, SVG Export Plug-In . SVG Version: 6.00 Build 0)  -->
<svg version="1.1" id="Layer_1" xmlns="http://www.w3.org/2000/svg" xmlns:xlink="http://www.w3.org/1999/xlink" x="0px" y="0px"
	 viewBox="0 0 285.4 103.5" style="enable-background:new 0 0 285.4 103.5;" xml:space="preserve">
<style type="text/css">
	.st0{fill:#F26722;}
	.st1{fill:#4D4D4D;}
</style>
<g id="Layer_2_1_">
	<g id="Layer_1-2">
		<path class="st0" d="M51.7,0C23.1,0,0,23.2,0,51.8c0,5.5,0.9,11,2.6,16.2h15.5V24.5l33.6,33.6l33.6-33.6V68h15.5
			c9-27.1-5.7-56.4-32.8-65.4C62.8,0.9,57.3,0,51.7,0"/>
		<path class="st1" d="M44,65.9L29.3,51.2v27.4H7.5c14.9,24.4,46.7,32.2,71.1,17.3c7.1-4.3,13-10.2,17.3-17.3H74.1V51.2L59.5,65.9
			l-7.7,7.7L44,65.9z"/>
	</g>
</g>
<g>
	<path class="st0" d="M121.2,60h10.9c0.5,5.4,4,8.8,9.6,8.8c5.1,0,8.5-2.1,8.5-6.1c0-10.4-27.5-2.4-27.5-23.3c0-8.8,7.6-15,18.3-15
		c11.4,0,19.2,6.6,19.5,16.7h-10.8c-0.4-4.2-3.6-6.9-8.6-6.9c-4.5,0-7.3,2.1-7.3,5.2c0,11.1,27.9,2.1,27.9,23.1
		c0,9.9-8,16.1-19.9,16.1C129.7,78.6,121.7,71.2,121.2,60z"/>
	<path class="st0" d="M165.4,58.9c0-11.1,7.9-19.7,19.7-19.7c10,0,18,6.1,18.6,14.9h-10.6c-0.6-3.4-3.9-5.9-7.7-5.9
		c-5.7,0-9,4.5-9,10.7s3.4,10.6,9.2,10.6c3.9,0,7-2.3,7.7-5.8h10.8c-1.1,8.5-9,14.8-18.9,14.8C173.3,78.6,165.4,70,165.4,58.9z"/>
	<path class="st0" d="M241.8,53.4V78h-10.5v-5.3c-1.3,3.6-5.5,5.9-10.8,5.9c-7.4,0-12.5-4.9-12.5-11.4c0-7.5,5.6-12,13.9-12h6.4
		c1.9,0,2.9-1.2,2.9-2.8c0-3.2-2.5-5.4-6.8-5.4c-4.6,0-7,2.9-7.1,6.1H208c0.5-7.7,6.7-13.8,17.1-13.8
		C234.7,39.2,241.8,44.8,241.8,53.4z M231.3,62.3v-0.5h-7.7c-3.2,0-5.5,2-5.5,4.9c0,2.5,2.1,4.2,5.1,4.2
		C228.4,70.9,231.3,67.2,231.3,62.3z"/>
	<path class="st0" d="M249,39.8h10.6v5.3c2.1-3.7,6.4-5.9,11.6-5.9c8.6,0,14.2,6.2,14.2,15V78h-10.6V56.5c0-4.6-3-8-7.3-8
		c-4.6,0-7.9,3.6-7.9,8.5v21H249V39.8z"/>
</g>
<text transform="matrix(1 0 0 1 95.94 281.76)" class="st0" style="font-family:'Roobert-Bold'; font-size:76.8126px;">Scan.org</text>
<path class="st0" d="M513,39.1h-16v-10h43.5v10h-16v44H513V39.1z"/>
<path class="st0" d="M559.7,53.3c-5.3,0-7.7,4.4-7.7,11v18.9h-10.8V44.3H552v6.5c2.1-4.9,5-6.5,9.7-6.5h4.4v9H559.7z"/>
<path class="st0" d="M603.3,58.2v25h-10.7v-5.4c-1.3,3.6-5.6,6-11,6c-7.6,0-12.7-5-12.7-11.7c0-7.6,5.7-12.3,14.2-12.3h6.6
	c1.5,0.1,2.8-1,2.9-2.5c0-0.1,0-0.3,0-0.4c0-3.2-2.5-5.5-7-5.5c-4.7,0-7.1,2.9-7.2,6.2h-9.6c0.5-7.8,6.8-14,17.4-14
	C596.1,43.7,603.3,49.4,603.3,58.2z M592.6,67.2v-0.5h-7.9c-3.2,0-5.6,2-5.6,5c0,2.6,2.2,4.3,5.2,4.3
	C589.6,76,592.6,72.2,592.6,67.2L592.6,67.2z"/>
<path class="st0" d="M608.6,63.8c0-11.4,8-20.1,20.1-20.1c10.2,0,18.3,6.2,19,15.2h-10.8c-0.6-3.5-3.9-6-7.9-6
	c-5.8,0-9.2,4.5-9.2,10.9s3.5,10.8,9.3,10.8c3.7,0.2,7-2.3,7.9-5.9h11c-1.2,8.6-9.2,15.1-19.3,15.1
	C616.6,83.8,608.6,75.1,608.6,63.8z"/>
<path class="st0" d="M669.1,66.8l-4.3,4.2v12.2H654V27.4h10.8v30.2l13.5-13.3h13.6l-15.5,15.3l16.7,23.6h-13L669.1,66.8z"/>
<path class="st0" d="M731.5,70c-1.5,8.4-9,13.8-18.5,13.8c-13.2,0-20-10.3-20-20.1s6-20,19.2-20c13.7,0,19.2,10.1,19.2,19
	c0,1.5-0.1,2.6-0.2,3.5h-27.9c0.8,5.5,4.2,8.9,9.7,8.9c4.3,0,7.2-1.7,8-5L731.5,70z M703.5,59.4h17.2c-0.2-4.4-3.9-7.9-8.3-7.8h-0.1
	C707.4,51.6,704.4,54,703.5,59.4z"/>
<path class="st0" d="M755.9,53.3c-5.3,0-7.7,4.4-7.7,11v18.9h-10.8V44.3h10.8v6.5c2.1-4.9,5-6.5,9.7-6.5h4.4v9H755.9z"/>
</svg>
