<?xml version="1.0" encoding="utf-8"?>
<!-- Generator: Adobe Illustrator 26.0.3, SVG Export Plug-In . SVG Version: 6.00 Build 0)  -->
<svg version="1.1" id="Layer_1" xmlns="http://www.w3.org/2000/svg" xmlns:xlink="http://www.w3.org/1999/xlink" x="0px" y="0px"
	 viewBox="0 0 406.9 103.5" style="enable-background:new 0 0 406.9 103.5;" xml:space="preserve">
<style type="text/css">
	.st0{fill:#F26722;}
	.st1{fill:#4D4D4D;}
	.st2{opacity:0.5;}
</style>
<g>
	<path class="st0" d="M242.7,60h10.9c0.5,5.4,4,8.8,9.6,8.8c5.1,0,8.5-2.1,8.5-6.1c0-10.4-27.5-2.4-27.5-23.3c0-8.8,7.6-15,18.3-15
		c11.4,0,19.2,6.6,19.5,16.7h-10.8c-0.4-4.2-3.6-6.9-8.6-6.9c-4.5,0-7.3,2.1-7.3,5.2c0,11.1,27.9,2.1,27.9,23.1
		c0,9.9-8,16.1-19.9,16.1C251.2,78.6,243.2,71.2,242.7,60z"/>
	<path class="st0" d="M286.9,58.9c0-11.1,7.9-19.7,19.7-19.7c10,0,18,6.1,18.6,14.9h-10.6c-0.6-3.4-3.9-5.9-7.7-5.9
		c-5.7,0-9,4.5-9,10.7s3.4,10.6,9.2,10.6c3.9,0,7-2.3,7.7-5.8h10.8c-1.1,8.5-9,14.8-18.9,14.8C294.8,78.6,286.9,70,286.9,58.9z"/>
	<path class="st0" d="M363.3,53.4V78h-10.5v-5.3c-1.3,3.6-5.5,5.9-10.8,5.9c-7.4,0-12.5-4.9-12.5-11.4c0-7.5,5.6-12,13.9-12h6.4
		c1.9,0,2.9-1.2,2.9-2.8c0-3.2-2.5-5.4-6.8-5.4c-4.6,0-7,2.9-7.1,6.1h-9.3c0.5-7.7,6.7-13.8,17.1-13.8
		C356.2,39.2,363.3,44.8,363.3,53.4z M352.8,62.3v-0.5h-7.7c-3.2,0-5.5,2-5.5,4.9c0,2.5,2.1,4.2,5.1,4.2
		C349.9,70.9,352.8,67.2,352.8,62.3z"/>
	<path class="st0" d="M370.5,39.8h10.6v5.3c2.1-3.7,6.4-5.9,11.6-5.9c8.6,0,14.2,6.2,14.2,15V78h-10.6V56.5c0-4.6-3-8-7.3-8
		c-4.6,0-7.9,3.6-7.9,8.5v21h-10.6L370.5,39.8L370.5,39.8z"/>
	<path class="st0" d="M224.9,51.8c0,5.8-0.9,11.3-2.7,16.5h-15.4V24.7l-33.6,33.6l-33.6-33.6v43.5h-15.4c-1.8-5.2-2.7-10.7-2.7-16.4
		c0-28.6,23.2-51.8,51.7-51.8C201.8,0,224.9,23.2,224.9,51.8z"/>
	<path class="st1" d="M217.3,78.8c-9.1,14.8-25.4,24.7-44.1,24.7s-35-9.9-44.1-24.7h21.7V51.4l14.7,14.7l7.8,7.7l7.7-7.7l14.6-14.7
		v27.4C195.6,78.8,217.3,78.8,217.3,78.8z"/>
</g>
<g class="st2">
	<path class="st0" d="M62,31.8H3.3c-1.8,0-3.3-1.5-3.3-3.3v-3.8c0-1.8,1.5-3.3,3.3-3.3H62c1.8,0,3.3,1.5,3.3,3.3v3.8
		C65.3,30.3,63.9,31.8,62,31.8z"/>
	<path class="st0" d="M62,56.6H3.3c-1.8,0-3.3-1.5-3.3-3.3v-3.8c0-1.8,1.5-3.3,3.3-3.3H62c1.8,0,3.3,1.5,3.3,3.3v3.8
		C65.3,55.1,63.9,56.6,62,56.6z"/>
	<path class="st0" d="M62,81.4H3.3C1.5,81.4,0,80,0,78.1v-3.8C0,72.5,1.5,71,3.3,71H62c1.8,0,3.3,1.5,3.3,3.3v3.8
		C65.3,80,63.9,81.4,62,81.4z"/>
</g>
</svg>
