<?xml version="1.0" encoding="utf-8"?>
<!-- Generator: Adobe Illustrator 26.0.3, SVG Export Plug-In . SVG Version: 6.00 Build 0)  -->
<svg version="1.1" id="Layer_1" xmlns="http://www.w3.org/2000/svg" xmlns:xlink="http://www.w3.org/1999/xlink" x="0px" y="0px"
	 viewBox="0 0 395.9 103.5" style="enable-background:new 0 0 395.9 103.5;" xml:space="preserve">
<style type="text/css">
	.st0{fill:#F26722;}
	.st1{opacity:0.5;}
	.st2{fill:#FFCCB6;}
</style>
<path class="st0" d="M401.2,192.6H249.1c-3.5,0-6.4-2.9-6.4-6.4v-31.7c0-3.5,2.9-6.4,6.4-6.4h152.1c3.5,0,6.4,2.9,6.4,6.4v31.7
	C407.6,189.7,404.8,192.6,401.2,192.6z"/>
<g class="st1">
	<path class="st0" d="M62,44.5H3.3C1.5,44.5,0,43,0,41.2v-3.8c0-1.8,1.5-3.3,3.3-3.3H62c1.8,0,3.3,1.5,3.3,3.3v3.8
		C65.3,43,63.9,44.5,62,44.5z"/>
	<path class="st0" d="M62,69.3H3.3C1.5,69.3,0,67.9,0,66v-3.8c0-1.8,1.5-3.3,3.3-3.3H62c1.8,0,3.3,1.5,3.3,3.3v3.8
		C65.3,67.9,63.9,69.3,62,69.3z"/>
</g>
<g>
	<path class="st2" d="M274,181.4v-17.8h-7v-4h18.7v4h-7v17.8H274z"/>
	<path class="st2" d="M293.6,181.8c-1.8,0-3.4-0.3-4.6-0.9c-1.2-0.6-2.2-1.6-2.8-2.9c-0.6-1.3-1-2.9-1-4.9s0.3-3.6,1-4.9
		c0.6-1.3,1.6-2.2,2.8-2.9c1.2-0.6,2.8-0.9,4.5-0.9s3.1,0.3,4.3,0.9s2,1.5,2.6,2.8s0.9,2.9,0.9,4.9v1.1h-11.6c0,1,0.2,1.8,0.5,2.5
		s0.7,1.2,1.2,1.5c0.6,0.3,1.3,0.5,2.2,0.5c0.5,0,1-0.1,1.4-0.2c0.4-0.1,0.8-0.3,1.1-0.6c0.3-0.3,0.5-0.6,0.7-1s0.3-0.8,0.3-1.3h4.3
		c0,1.1-0.2,2-0.6,2.8s-0.9,1.4-1.6,1.9s-1.5,0.9-2.4,1.2S294.7,181.8,293.6,181.8z M289.7,171.3h7c0-0.6-0.1-1.2-0.2-1.6
		s-0.4-0.8-0.6-1.1c-0.3-0.3-0.6-0.5-1-0.6s-0.8-0.2-1.3-0.2c-0.8,0-1.5,0.1-2,0.4c-0.5,0.3-1,0.7-1.2,1.2
		C290,169.8,289.8,170.5,289.7,171.3z"/>
	<path class="st2" d="M311.2,181.8c-1.2,0-2.2-0.1-3.1-0.4s-1.7-0.6-2.4-1.1s-1.2-1-1.5-1.6s-0.5-1.4-0.5-2.2c0-0.1,0-0.2,0-0.3
		s0-0.1,0-0.2h4.2v0.1v0.1c0,0.5,0.2,1,0.5,1.3s0.7,0.6,1.3,0.7s1.1,0.2,1.6,0.2s1,0,1.5-0.1s0.9-0.3,1.2-0.5c0.3-0.3,0.5-0.6,0.5-1
		c0-0.5-0.2-0.9-0.6-1.2s-1-0.5-1.6-0.7s-1.4-0.4-2.2-0.6c-0.7-0.2-1.4-0.4-2.2-0.6s-1.4-0.5-1.9-0.9c-0.6-0.4-1.1-0.8-1.4-1.4
		c-0.4-0.6-0.5-1.3-0.5-2.2s0.2-1.6,0.6-2.3c0.4-0.6,0.9-1.2,1.6-1.6c0.7-0.4,1.4-0.7,2.3-0.9s1.9-0.3,2.9-0.3s1.9,0.1,2.7,0.3
		s1.6,0.5,2.2,0.9s1.1,0.9,1.5,1.5s0.5,1.2,0.5,1.9c0,0.1,0,0.3,0,0.4c0,0.1,0,0.2,0,0.3h-4.2v-0.3c0-0.4-0.1-0.7-0.3-1
		c-0.2-0.3-0.6-0.5-1-0.6s-1-0.2-1.6-0.2c-0.4,0-0.8,0-1.2,0.1c-0.3,0.1-0.6,0.2-0.9,0.3s-0.4,0.3-0.6,0.5c-0.1,0.2-0.2,0.4-0.2,0.6
		c0,0.4,0.2,0.6,0.5,0.9c0.3,0.2,0.7,0.4,1.2,0.6c0.5,0.1,1.1,0.3,1.7,0.5c0.8,0.2,1.6,0.4,2.4,0.6c0.8,0.2,1.6,0.5,2.3,0.8
		c0.7,0.3,1.3,0.8,1.7,1.4c0.4,0.6,0.7,1.5,0.7,2.5s-0.2,1.9-0.6,2.6c-0.4,0.7-0.9,1.3-1.6,1.7s-1.5,0.7-2.4,0.9
		C313.3,181.7,312.3,181.8,311.2,181.8z"/>
	<path class="st2" d="M327.1,181.8c-1.1,0-1.9-0.2-2.6-0.6c-0.7-0.4-1.1-0.9-1.4-1.5s-0.4-1.4-0.4-2.1v-9.4h-2.1v-3.4h2.2l0.8-4.8
		h3.4v4.8h3v3.4h-3v8.7c0,0.5,0.1,0.9,0.3,1.2c0.2,0.3,0.6,0.4,1.1,0.4h1.6v2.9c-0.3,0.1-0.5,0.2-0.9,0.2s-0.7,0.1-1.1,0.2
		S327.4,181.8,327.1,181.8z"/>
	<path class="st2" d="M333.3,181.4v-21.7h4.3l8.7,11.7c0.1,0.1,0.3,0.4,0.5,0.6c0.2,0.3,0.4,0.5,0.5,0.8c0.2,0.3,0.3,0.5,0.3,0.6
		h0.2c0-0.4,0-0.7,0-1.1c0-0.3,0-0.7,0-0.9v-11.7h4.5v21.7H348l-8.9-12c-0.2-0.3-0.4-0.6-0.7-1c-0.2-0.4-0.4-0.6-0.5-0.8h-0.2
		c0,0.3,0,0.6,0,0.9c0,0.3,0,0.6,0,0.9v12H333.3z"/>
	<path class="st2" d="M364.4,181.8c-1.8,0-3.4-0.3-4.6-0.9c-1.2-0.6-2.2-1.6-2.8-2.9c-0.6-1.3-1-2.9-1-4.9s0.3-3.6,1-4.9
		c0.6-1.3,1.6-2.2,2.8-2.9c1.2-0.6,2.8-0.9,4.5-0.9s3.1,0.3,4.3,0.9s2,1.5,2.6,2.8s0.9,2.9,0.9,4.9v1.1h-11.6c0,1,0.2,1.8,0.5,2.5
		s0.7,1.2,1.2,1.5c0.6,0.3,1.3,0.5,2.2,0.5c0.5,0,1-0.1,1.4-0.2c0.4-0.1,0.8-0.3,1.1-0.6c0.3-0.3,0.5-0.6,0.7-1s0.3-0.8,0.3-1.3h4.3
		c0,1.1-0.2,2-0.6,2.8s-0.9,1.4-1.6,1.9s-1.5,0.9-2.4,1.2S365.5,181.8,364.4,181.8z M360.5,171.3h7c0-0.6-0.1-1.2-0.2-1.6
		s-0.4-0.8-0.6-1.1c-0.3-0.3-0.6-0.5-1-0.6s-0.8-0.2-1.3-0.2c-0.8,0-1.5,0.1-2,0.4c-0.5,0.3-1,0.7-1.2,1.2
		C360.8,169.8,360.6,170.5,360.5,171.3z"/>
	<path class="st2" d="M380.3,181.8c-1.1,0-1.9-0.2-2.6-0.6c-0.7-0.4-1.1-0.9-1.4-1.5s-0.4-1.4-0.4-2.1v-9.4h-2.1v-3.4h2.2l0.8-4.8
		h3.4v4.8h3v3.4h-3v8.7c0,0.5,0.1,0.9,0.3,1.2c0.2,0.3,0.6,0.4,1.1,0.4h1.6v2.9c-0.3,0.1-0.5,0.2-0.9,0.2s-0.7,0.1-1.1,0.2
		S380.6,181.8,380.3,181.8z"/>
</g>
<g>
	<path class="st0" d="M134.8,78.5V36.1h-16.6v-9.5h44.7v9.5h-16.7v42.4H134.8z"/>
	<path class="st0" d="M181.6,79.4c-4.4,0-8.1-0.7-11-2.2c-3-1.5-5.2-3.8-6.7-6.8c-1.5-3.1-2.3-7-2.3-11.7c0-4.8,0.8-8.7,2.3-11.8
		s3.7-5.3,6.7-6.8s6.6-2.2,10.9-2.2c4,0,7.4,0.7,10.2,2.2c2.8,1.4,4.9,3.7,6.3,6.7c1.4,3,2.1,6.9,2.1,11.6v2.7h-27.8
		c0.1,2.3,0.5,4.3,1.1,5.9s1.6,2.8,3,3.6c1.3,0.8,3.1,1.2,5.3,1.2c1.2,0,2.3-0.2,3.3-0.5s1.8-0.8,2.5-1.4s1.3-1.4,1.7-2.3
		s0.6-1.9,0.6-3.1H200c0,2.5-0.5,4.7-1.4,6.6s-2.2,3.4-3.8,4.7c-1.6,1.2-3.5,2.2-5.8,2.8S184.3,79.4,181.6,79.4z M172.4,54.3h16.8
		c0-1.5-0.2-2.8-0.6-3.9s-0.9-2-1.5-2.7c-0.7-0.7-1.5-1.2-2.4-1.5s-2-0.5-3.1-0.5c-1.9,0-3.5,0.3-4.8,0.9c-1.3,0.6-2.3,1.6-3,2.9
		C173.1,50.7,172.6,52.3,172.4,54.3z"/>
	<path class="st0" d="M223.8,79.4c-2.8,0-5.3-0.3-7.5-0.9s-4.1-1.4-5.7-2.5c-1.6-1.1-2.8-2.4-3.6-3.9s-1.2-3.2-1.2-5.1
		c0-0.2,0-0.4,0-0.6s0-0.4,0.1-0.5H216c0,0.1,0,0.2,0,0.3c0,0.1,0,0.2,0,0.3c0.1,1.3,0.5,2.3,1.2,3.1c0.8,0.8,1.8,1.4,3,1.7
		s2.5,0.5,3.9,0.5c1.2,0,2.4-0.1,3.5-0.3c1.1-0.2,2.1-0.6,2.9-1.2c0.8-0.6,1.2-1.4,1.2-2.3c0-1.2-0.5-2.1-1.5-2.8
		c-1-0.7-2.3-1.2-3.9-1.6s-3.3-0.9-5.2-1.4c-1.7-0.4-3.4-0.9-5.1-1.4c-1.7-0.5-3.3-1.2-4.7-2.1c-1.4-0.9-2.5-2-3.4-3.4
		s-1.3-3.1-1.3-5.3c0-2.1,0.5-3.9,1.4-5.4s2.2-2.8,3.7-3.8c1.6-1,3.5-1.8,5.6-2.2s4.5-0.7,6.9-0.7c2.3,0,4.5,0.2,6.5,0.7
		s3.8,1.2,5.3,2.1c1.5,0.9,2.7,2.1,3.6,3.5c0.9,1.4,1.3,2.9,1.3,4.7c0,0.4,0,0.7,0,1s0,0.5-0.1,0.6h-10.1v-0.6
		c0-0.9-0.3-1.7-0.8-2.3c-0.6-0.6-1.4-1.1-2.4-1.5s-2.3-0.5-3.7-0.5c-1,0-1.9,0.1-2.8,0.2c-0.8,0.2-1.5,0.4-2.2,0.7
		c-0.6,0.3-1.1,0.7-1.4,1.1c-0.3,0.4-0.5,0.9-0.5,1.6c0,0.9,0.4,1.6,1.1,2.1c0.7,0.5,1.7,1,2.9,1.3c1.2,0.4,2.5,0.7,4,1.1
		c1.8,0.5,3.7,1,5.7,1.5s3.8,1.1,5.6,1.9c1.7,0.8,3.1,2,4.2,3.4c1.1,1.5,1.6,3.5,1.6,6c0,2.4-0.5,4.5-1.4,6.1c-0.9,1.7-2.2,3-3.9,4
		s-3.6,1.7-5.8,2.2C228.8,79.2,226.4,79.4,223.8,79.4z"/>
	<path class="st0" d="M261.6,79.4c-2.5,0-4.6-0.5-6.1-1.4c-1.6-0.9-2.7-2.1-3.4-3.7c-0.7-1.5-1.1-3.2-1.1-5.1V46.8h-4.9v-8.1h5.3
		l2-11.3h8.2v11.3h7.3v8.1h-7.3v20.7c0,1.2,0.3,2.1,0.8,2.8c0.6,0.6,1.5,0.9,2.7,0.9h3.7v7c-0.6,0.2-1.3,0.4-2.1,0.6
		c-0.8,0.2-1.7,0.3-2.6,0.5C263.2,79.3,262.4,79.4,261.6,79.4z"/>
	<path class="st0" d="M276.5,78.5V26.6h10.4l20.9,28c0.3,0.4,0.7,0.8,1.1,1.5c0.5,0.6,0.9,1.2,1.3,1.9c0.4,0.6,0.7,1.1,0.8,1.4h0.4
		c0-0.9,0-1.7,0-2.5s0-1.6,0-2.2v-28H322v51.9h-10.4l-21.3-28.7c-0.5-0.7-1-1.5-1.6-2.3c-0.6-0.9-1-1.5-1.2-2h-0.4
		c0,0.8,0,1.5,0,2.2s0,1.4,0,2.1v28.7h-10.6V78.5z"/>
	<path class="st0" d="M350.7,79.4c-4.4,0-8.1-0.7-11-2.2c-3-1.5-5.2-3.8-6.7-6.8c-1.5-3.1-2.3-7-2.3-11.7c0-4.8,0.8-8.7,2.3-11.8
		s3.7-5.3,6.7-6.8s6.6-2.2,10.9-2.2c4,0,7.4,0.7,10.2,2.2s4.9,3.7,6.3,6.7s2.1,6.9,2.1,11.6v2.7h-27.8c0.1,2.3,0.5,4.3,1.1,5.9
		s1.6,2.8,3,3.6c1.3,0.8,3.1,1.2,5.3,1.2c1.2,0,2.3-0.2,3.3-0.5s1.8-0.8,2.5-1.4s1.3-1.4,1.7-2.3c0.4-0.9,0.6-1.9,0.6-3.1h10.3
		c0,2.5-0.5,4.7-1.4,6.6s-2.2,3.4-3.8,4.7c-1.6,1.2-3.5,2.2-5.8,2.8C355.9,79.1,353.4,79.4,350.7,79.4z M341.5,54.3h16.8
		c0-1.5-0.2-2.8-0.6-3.9c-0.4-1.1-0.9-2-1.5-2.7c-0.7-0.7-1.5-1.2-2.4-1.5s-2-0.5-3.1-0.5c-1.9,0-3.5,0.3-4.8,0.9
		c-1.3,0.6-2.3,1.6-3,2.9C342.2,50.7,341.7,52.3,341.5,54.3z"/>
	<path class="st0" d="M388.7,79.4c-2.5,0-4.6-0.5-6.1-1.4c-1.6-0.9-2.7-2.1-3.4-3.7c-0.7-1.5-1.1-3.2-1.1-5.1V46.8h-4.9v-8.1h5.3
		l2-11.3h8.2v11.3h7.3v8.1h-7.3v20.7c0,1.2,0.3,2.1,0.8,2.8c0.6,0.6,1.5,0.9,2.7,0.9h3.7v7c-0.6,0.2-1.3,0.4-2.1,0.6
		c-0.8,0.2-1.7,0.3-2.6,0.5S389.4,79.4,388.7,79.4z"/>
</g>
<path class="st0" d="M401.4,255.6H249.3c-3.5,0-6.4-2.9-6.4-6.4v-31.7c0-3.5,2.9-6.4,6.4-6.4h152.1c3.5,0,6.4,2.9,6.4,6.4v31.7
	C407.8,252.8,404.9,255.6,401.4,255.6z"/>
<g>
	<path class="st2" d="M270.4,244.1c-1.2,0-2.3-0.1-3.3-0.3s-2-0.6-2.8-1.1s-1.4-1.2-1.9-1.9s-0.7-1.7-0.7-2.9c0-0.1,0-0.2,0-0.3
		s0-0.2,0-0.2h4.3c0,0.1,0,0.1,0,0.2c0,0.1,0,0.2,0,0.3c0,0.6,0.2,1.1,0.5,1.6c0.3,0.4,0.8,0.7,1.5,1c0.7,0.2,1.4,0.3,2.3,0.3
		c0.6,0,1.1,0,1.5-0.1s0.8-0.2,1.2-0.3c0.3-0.1,0.6-0.3,0.8-0.4c0.2-0.2,0.4-0.4,0.5-0.6c0.1-0.2,0.2-0.5,0.2-0.8
		c0-0.5-0.2-0.9-0.5-1.3c-0.3-0.3-0.8-0.6-1.4-0.8s-1.3-0.4-2-0.6c-0.7-0.2-1.5-0.4-2.3-0.6s-1.5-0.5-2.3-0.8
		c-0.7-0.3-1.4-0.7-2-1.1c-0.6-0.4-1-1-1.4-1.6c-0.3-0.7-0.5-1.5-0.5-2.4c0-1,0.2-1.8,0.6-2.6c0.4-0.7,1-1.3,1.8-1.8s1.6-0.8,2.6-1
		s2.1-0.3,3.2-0.3s2.1,0.1,3.1,0.3s1.8,0.6,2.6,1.1c0.7,0.5,1.3,1.1,1.7,1.8c0.4,0.7,0.6,1.6,0.6,2.6v0.3h-4.2v-0.2
		c0-0.5-0.2-1-0.5-1.3s-0.7-0.7-1.3-0.9c-0.6-0.2-1.2-0.3-2-0.3s-1.5,0.1-2.1,0.2c-0.6,0.2-1,0.4-1.3,0.7s-0.4,0.7-0.4,1.1
		c0,0.5,0.2,0.8,0.5,1.1s0.8,0.6,1.4,0.8s1.3,0.4,2,0.6c0.7,0.2,1.5,0.4,2.3,0.6c0.8,0.2,1.5,0.5,2.3,0.8c0.7,0.3,1.4,0.7,2,1.1
		c0.6,0.4,1,1,1.4,1.6s0.5,1.4,0.5,2.3c0,1.5-0.4,2.8-1.1,3.7s-1.7,1.6-3,2C273.5,243.9,272.1,244.1,270.4,244.1z"/>
	<path class="st2" d="M286.6,244.1c-1,0-1.8-0.2-2.3-0.5c-0.6-0.3-1-0.8-1.3-1.4s-0.4-1.2-0.4-2v-8.6h-1.9v-3.1h2l0.8-4.3h3.1v4.3
		h2.8v3.1h-2.8v7.9c0,0.5,0.1,0.8,0.3,1.1c0.2,0.2,0.6,0.4,1,0.4h1.4v2.7c-0.2,0.1-0.5,0.1-0.8,0.2c-0.3,0.1-0.6,0.1-1,0.2
		C287.2,244.1,286.9,244.1,286.6,244.1z"/>
	<path class="st2" d="M296,244.1c-0.5,0-1-0.1-1.6-0.2s-1.1-0.3-1.6-0.6s-0.9-0.7-1.2-1.3c-0.3-0.6-0.5-1.3-0.5-2.2
		c0-1.1,0.2-1.9,0.7-2.6s1.1-1.2,2-1.6c0.9-0.4,1.9-0.7,3.1-0.8c1.2-0.2,2.5-0.2,4-0.2v-1.1c0-0.4-0.1-0.8-0.2-1.2
		c-0.1-0.3-0.4-0.6-0.8-0.8s-0.9-0.3-1.5-0.3s-1.2,0.1-1.6,0.2c-0.4,0.2-0.7,0.4-0.8,0.6c-0.2,0.2-0.2,0.5-0.2,0.8v0.3h-3.9
		c0-0.1,0-0.2,0-0.3s0-0.2,0-0.3c0-0.9,0.3-1.7,0.8-2.3s1.3-1.1,2.3-1.5s2.1-0.5,3.5-0.5s2.6,0.2,3.6,0.6s1.7,0.9,2.2,1.6
		c0.5,0.7,0.8,1.6,0.8,2.7v6.9c0,0.3,0.1,0.6,0.3,0.8c0.2,0.2,0.4,0.2,0.7,0.2h1v2.6c-0.2,0.1-0.5,0.2-0.9,0.3s-0.9,0.2-1.5,0.2
		s-1.1-0.1-1.5-0.2c-0.4-0.2-0.8-0.4-1.1-0.7s-0.5-0.7-0.6-1.1H301c-0.3,0.4-0.7,0.8-1.2,1.1s-1,0.6-1.7,0.7
		C297.5,244,296.8,244.1,296,244.1z M297.3,241c0.5,0,1-0.1,1.5-0.2c0.4-0.2,0.8-0.4,1.1-0.7s0.5-0.6,0.7-1s0.2-0.8,0.2-1.3V237
		c-1.1,0-2,0.1-2.9,0.2c-0.9,0.1-1.5,0.4-2,0.7s-0.7,0.8-0.7,1.5c0,0.3,0.1,0.6,0.3,0.9c0.2,0.3,0.4,0.4,0.8,0.6
		C296.5,241,296.9,241,297.3,241z"/>
	<path class="st2" d="M311.3,249.2c-0.7,0-1.3-0.1-1.9-0.4c-0.6-0.3-1.1-0.7-1.4-1.2c-0.4-0.5-0.6-1.2-0.6-1.9c0-0.9,0.2-1.5,0.7-2
		s1-0.9,1.7-1.1c-0.4-0.3-0.8-0.6-1.1-1c-0.3-0.4-0.4-0.9-0.4-1.4c0-0.8,0.3-1.4,0.8-1.8c0.6-0.5,1.2-0.8,1.9-0.9
		c-0.7-0.4-1.3-1-1.7-1.7c-0.4-0.7-0.6-1.5-0.6-2.3c0-1.1,0.3-2,0.8-2.8c0.6-0.8,1.3-1.3,2.4-1.7c1-0.4,2.3-0.6,3.7-0.6
		c0.6,0,1.1,0,1.6,0.1s0.9,0.2,1.3,0.3c0.7-0.4,1.2-0.9,1.5-1.4s0.4-0.9,0.4-1.2h3.7c0,0.7-0.1,1.3-0.4,1.9c-0.3,0.5-0.6,1-1.1,1.3
		s-1.1,0.6-1.7,0.7c0.5,0.4,0.9,0.9,1.2,1.5c0.3,0.6,0.4,1.2,0.4,1.9c0,1.1-0.3,2-0.8,2.8s-1.3,1.3-2.2,1.8c-1,0.4-2.1,0.6-3.4,0.6
		h-2.3c-0.5,0-0.8,0.1-1,0.2c-0.2,0.2-0.3,0.4-0.3,0.7s0.1,0.5,0.3,0.7c0.2,0.2,0.5,0.3,1,0.3h6.4c1.3,0,2.3,0.4,3.1,1.2
		s1.1,1.8,1.1,3c0,0.9-0.2,1.7-0.7,2.5c-0.5,0.7-1.2,1.3-2,1.7c-0.9,0.4-1.8,0.6-2.9,0.6h-7.5V249.2z M312.9,246.5h5.4
		c0.3,0,0.7-0.1,0.9-0.2c0.3-0.1,0.5-0.3,0.6-0.5c0.2-0.2,0.2-0.5,0.2-0.8c0-0.5-0.2-0.9-0.5-1.1c-0.3-0.3-0.7-0.4-1.2-0.4h-5.5
		c-0.5,0-0.8,0.1-1.1,0.4c-0.3,0.3-0.5,0.6-0.5,1.1c0,0.4,0.2,0.8,0.5,1.1C312.1,246.3,312.5,246.5,312.9,246.5z M315.6,235.8
		c0.9,0,1.7-0.2,2.2-0.7c0.5-0.4,0.7-1.1,0.7-1.9c0-0.8-0.2-1.4-0.7-1.9c-0.5-0.4-1.2-0.7-2.2-0.7c-0.9,0-1.6,0.2-2.1,0.7
		c-0.5,0.4-0.7,1.1-0.7,1.9c0,0.5,0.1,1,0.3,1.4c0.2,0.4,0.5,0.7,1,0.9C314.4,235.7,314.9,235.8,315.6,235.8z"/>
	<path class="st2" d="M333.3,244.1c-1.7,0-3.1-0.3-4.2-0.9c-1.1-0.6-2-1.4-2.6-2.6c-0.6-1.2-0.9-2.7-0.9-4.5s0.3-3.3,0.9-4.5
		s1.4-2,2.6-2.6c1.1-0.6,2.5-0.9,4.2-0.9c1.5,0,2.9,0.3,3.9,0.8c1.1,0.6,1.9,1.4,2.4,2.6c0.5,1.2,0.8,2.6,0.8,4.5v1h-10.6
		c0,0.9,0.2,1.6,0.4,2.3c0.2,0.6,0.6,1.1,1.1,1.4c0.5,0.3,1.2,0.5,2,0.5c0.5,0,0.9-0.1,1.3-0.2c0.4-0.1,0.7-0.3,1-0.5
		s0.5-0.5,0.6-0.9c0.2-0.3,0.2-0.7,0.2-1.2h3.9c0,1-0.2,1.8-0.5,2.5s-0.8,1.3-1.4,1.8s-1.4,0.8-2.2,1.1S334.3,244.1,333.3,244.1z
		 M329.8,234.5h6.4c0-0.6-0.1-1.1-0.2-1.5s-0.3-0.8-0.6-1c-0.3-0.3-0.6-0.5-0.9-0.6c-0.4-0.1-0.8-0.2-1.2-0.2
		c-0.7,0-1.3,0.1-1.8,0.4c-0.5,0.2-0.9,0.6-1.1,1.1C330,233.1,329.9,233.7,329.8,234.5z"/>
	<path class="st2" d="M343.7,243.7v-19.9h4l8,10.7c0.1,0.1,0.3,0.3,0.4,0.6c0.2,0.2,0.3,0.5,0.5,0.7s0.3,0.4,0.3,0.6h0.1
		c0-0.3,0-0.7,0-1s0-0.6,0-0.9v-10.7h4.1v19.9h-4l-8.2-11c-0.2-0.3-0.4-0.6-0.6-0.9c-0.2-0.3-0.4-0.6-0.5-0.8h-0.1
		c0,0.3,0,0.6,0,0.9s0,0.5,0,0.8v11L343.7,243.7L343.7,243.7z"/>
	<path class="st2" d="M372.1,244.1c-1.7,0-3.1-0.3-4.2-0.9c-1.1-0.6-2-1.4-2.6-2.6c-0.6-1.2-0.9-2.7-0.9-4.5s0.3-3.3,0.9-4.5
		s1.4-2,2.6-2.6c1.1-0.6,2.5-0.9,4.2-0.9c1.5,0,2.9,0.3,3.9,0.8c1.1,0.6,1.9,1.4,2.4,2.6c0.5,1.2,0.8,2.6,0.8,4.5v1h-10.6
		c0,0.9,0.2,1.6,0.4,2.3c0.2,0.6,0.6,1.1,1.1,1.4c0.5,0.3,1.2,0.5,2,0.5c0.5,0,0.9-0.1,1.3-0.2c0.4-0.1,0.7-0.3,1-0.5
		s0.5-0.5,0.6-0.9c0.2-0.3,0.2-0.7,0.2-1.2h3.9c0,1-0.2,1.8-0.5,2.5s-0.8,1.3-1.4,1.8s-1.4,0.8-2.2,1.1S373.2,244.1,372.1,244.1z
		 M368.6,234.5h6.4c0-0.6-0.1-1.1-0.2-1.5s-0.3-0.8-0.6-1c-0.3-0.3-0.6-0.5-0.9-0.6c-0.4-0.1-0.8-0.2-1.2-0.2
		c-0.7,0-1.3,0.1-1.8,0.4c-0.5,0.2-0.9,0.6-1.1,1.1C368.8,233.1,368.7,233.7,368.6,234.5z"/>
	<path class="st2" d="M386.7,244.1c-1,0-1.8-0.2-2.3-0.5c-0.6-0.3-1-0.8-1.3-1.4s-0.4-1.2-0.4-2v-8.6h-1.9v-3.1h2l0.8-4.3h3.1v4.3
		h2.8v3.1h-2.8v7.9c0,0.5,0.1,0.8,0.3,1.1c0.2,0.2,0.6,0.4,1,0.4h1.4v2.7c-0.2,0.1-0.5,0.1-0.8,0.2c-0.3,0.1-0.6,0.1-1,0.2
		C387.3,244.1,387,244.1,386.7,244.1z"/>
</g>
</svg>
