<?xml version="1.0" standalone="no"?>
<!DOCTYPE svg PUBLIC "-//W3C//DTD SVG 20010904//EN"
 "http://www.w3.org/TR/2001/REC-SVG-20010904/DTD/svg10.dtd">
<svg version="1.0" xmlns="http://www.w3.org/2000/svg"
 width="500.000000pt" height="500.000000pt" viewBox="0 0 500.000000 500.000000"
 preserveAspectRatio="xMidYMid meet">
<metadata>
Created by potrace 1.14, written by Peter Selinger 2001-2017
</metadata>
<g transform="translate(0.000000,500.000000) scale(0.100000,-0.100000)"
fill="#000000" stroke="none">
<path d="M2250 4990 c-30 -4 -80 -11 -110 -14 -160 -21 -386 -81 -551 -146
-730 -289 -1272 -885 -1493 -1640 -23 -80 -59 -243 -70 -320 -28 -191 -29
-585 -2 -730 3 -14 7 -42 10 -63 14 -88 70 -317 87 -349 8 -15 43 -16 381 -15
l373 2 0 1048 c0 576 1 1047 1 1047 1 0 366 -364 812 -810 l810 -810 811 811
c446 446 811 805 812 798 0 -8 1 -481 1 -1051 l1 -1037 376 2 375 2 19 60 c33
107 67 267 86 405 15 107 18 182 16 360 -1 124 -5 236 -9 249 -3 14 -8 45 -11
70 -8 66 -13 94 -41 211 -185 780 -723 1422 -1454 1733 -96 40 -262 98 -321
111 -13 3 -51 12 -84 20 -69 17 -95 22 -185 36 -36 6 -81 13 -100 16 -55 9
-479 12 -540 4z"/>
<path d="M1418 2513 c-2 -4 -4 -301 -4 -659 l1 -651 -522 1 c-364 1 -523 -2
-523 -10 0 -23 161 -248 246 -342 286 -318 595 -533 999 -692 54 -22 177 -61
235 -76 267 -67 376 -79 675 -78 280 0 451 25 705 101 114 33 311 114 400 163
40 22 75 40 77 40 23 0 311 195 394 266 116 100 251 236 321 325 24 30 50 62
59 72 36 40 152 218 146 224 -4 3 -239 6 -522 6 -461 0 -515 2 -519 16 -3 9
-4 303 -4 654 1 350 -1 639 -4 642 -2 3 -234 -226 -515 -508 -281 -281 -522
-523 -537 -536 l-26 -25 -536 535 c-294 294 -537 535 -539 537 -1 2 -5 0 -7
-5z"/>
</g>
</svg>
