<svg xmlns="http://www.w3.org/2000/svg" viewBox="0 0 29.91 17.95"><g id="Layer_2" data-name="Layer 2"><g id="Layer_1-2" data-name="Layer 1"><g id="Layer_2-2" data-name="Layer 2"><g id="_4" data-name=" 4"><path d="M2.08,17.58.27,15.86l-.09-.18a2,2,0,0,1-.18-.8,1.48,1.48,0,0,1,.39-1L13.89.4A1.62,1.62,0,0,1,15.73.19l.16.08L16,.41,29.35,13.79a1.41,1.41,0,0,1,.54.88A1.53,1.53,0,0,1,29.43,16l-1.54,1.56a1.33,1.33,0,0,1-1.54.23L15.84,7.3A1.64,1.64,0,0,0,14,7.51L5.9,15.6l-2,2A1.3,1.3,0,0,1,2.08,17.58Z"/></g></g></g></g></svg>