<svg xmlns="http://www.w3.org/2000/svg" viewBox="0 0 29.91 17.95"><defs><style>.cls-1{fill:#ff6404;}</style></defs><g id="Layer_2" data-name="Layer 2"><g id="Layer_1-2" data-name="Layer 1"><g id="Layer_2-2" data-name="Layer 2"><g id="_4" data-name=" 4"><path class="cls-1" d="M2.08,17.58.27,15.86l-.09-.18a2,2,0,0,1-.18-.8,1.48,1.48,0,0,1,.39-1L8.86,5.42l2.5-2.49L13.89.4A1.62,1.62,0,0,1,15.73.19l.16.08L16,.41,18.57,3,20.89,5.3l8.46,8.49a1.41,1.41,0,0,1,.54.88A1.53,1.53,0,0,1,29.43,16l-1.54,1.56a1.33,1.33,0,0,1-1.87,0l-2.13-2.11L17.07,8.63,15.59,7.16a.88.88,0,0,0-1.22,0L8,13.5,5.53,16,3.89,17.58A1.3,1.3,0,0,1,2.08,17.58Z"/></g></g></g></g></svg>