<svg xmlns="http://www.w3.org/2000/svg" viewBox="0 0 484.17 484.17"><defs><style>.cls-1{fill:#231f20;}</style></defs><g id="Layer_2" data-name="Layer 2"><g id="Layer_1-2" data-name="Layer 1"><path class="cls-1" d="M475,409.33a31.34,31.34,0,0,1,0,44.34L453.68,475a31.37,31.37,0,0,1-44.35,0L242.09,307.75,74.85,475a31.37,31.37,0,0,1-44.35,0L9.19,453.67a31.34,31.34,0,0,1,0-44.34L176.43,242.09,9.19,74.84a31.34,31.34,0,0,1,0-44.34L30.5,9.18a31.37,31.37,0,0,1,44.35,0L242.09,176.42,409.33,9.18a31.37,31.37,0,0,1,44.35,0L475,30.5a31.34,31.34,0,0,1,0,44.34L307.75,242.09Z"/></g></g></svg>